<svg width="145" height="152" viewBox="0 0 145 152" fill="none"
  xmlns="http://www.w3.org/2000/svg">
  <path d="M15.0422 14.8334V58.2636V58.0834V130.167V14.8334ZM29.4588 86.9167H54.688C55.7692 84.1536 57.0908 81.5706 58.6526 79.1678C60.2144 76.765 62.0165 74.5424 64.0588 72.5001H29.4588V86.9167ZM29.4588 115.75H52.3453C51.7446 113.347 51.3553 110.945 51.1775 108.542C50.9949 106.139 51.0238 103.736 51.264 101.333H29.4588V115.75ZM15.0422 144.583C11.0776 144.583 7.68245 143.173 4.85678 140.352C2.03592 137.526 0.625488 134.131 0.625488 130.167V14.8334C0.625488 10.8688 2.03592 7.47371 4.85678 4.64804C7.68245 1.82718 11.0776 0.416748 15.0422 0.416748H72.7088L115.959 43.6667V61.6876C113.676 60.7265 111.333 59.9768 108.931 59.4386C106.528 58.8956 104.065 58.5039 101.542 58.2636V50.8751H65.5005V14.8334H15.0422V130.167H58.4724C60.3946 133.05 62.5571 135.724 64.9599 138.19C67.3626 140.65 70.0057 142.781 72.889 144.583H15.0422ZM97.938 122.958C102.984 122.958 107.249 121.216 110.733 117.732C114.217 114.248 115.959 109.983 115.959 104.938C115.959 99.8918 114.217 95.6268 110.733 92.1428C107.249 88.6588 102.984 86.9167 97.938 86.9167C92.8922 86.9167 88.6272 88.6588 85.1432 92.1428C81.6592 95.6268 79.9172 99.8918 79.9172 104.938C79.9172 109.983 81.6592 114.248 85.1432 117.732C88.6272 121.216 92.8922 122.958 97.938 122.958ZM134.7 151.792L115.238 132.329C112.715 134.011 109.983 135.273 107.042 136.114C104.096 136.955 101.062 137.375 97.938 137.375C88.9276 137.375 81.2675 134.223 74.9578 127.918C68.6529 121.608 65.5005 113.948 65.5005 104.938C65.5005 95.9272 68.6529 88.2671 74.9578 81.9574C81.2675 75.6525 88.9276 72.5001 97.938 72.5001C106.948 72.5001 114.608 75.6525 120.918 81.9574C127.223 88.2671 130.375 95.9272 130.375 104.938C130.375 108.061 129.955 111.093 129.114 114.034C128.273 116.98 127.012 119.715 125.33 122.238L144.792 141.7L134.7 151.792Z" fill="white"/>
</svg>
