<svg width="30" height="32" viewBox="0 0 30 32" fill="none" xmlns="http://www.w3.org/2000/svg">
<path d="M28.3321 13.1184L16.1246 0.641687C15.9774 0.493284 15.8023 0.375493 15.6093 0.295109C15.4164 0.214725 15.2094 0.17334 15.0004 0.17334C14.7914 0.17334 14.5845 0.214725 14.3915 0.295109C14.1986 0.375493 14.0235 0.493284 13.8763 0.641687L1.66876 13.1342C1.37337 13.432 1.14008 13.7855 0.982429 14.1741C0.824782 14.5628 0.745922 14.9789 0.750427 15.3984V28.6667C0.7492 29.4772 1.05882 30.2574 1.61552 30.8465C2.17222 31.4356 2.93362 31.7888 3.74293 31.8334H26.2579C27.0672 31.7888 27.8286 31.4356 28.3853 30.8465C28.942 30.2574 29.2516 29.4772 29.2504 28.6667V15.3984C29.2517 14.548 28.9224 13.7304 28.3321 13.1184ZM11.8338 28.6667V19.1667H18.1671V28.6667H11.8338ZM26.0838 28.6667H21.3338V17.5834C21.3338 17.1634 21.1669 16.7607 20.87 16.4638C20.5731 16.1668 20.1704 16 19.7504 16H10.2504C9.8305 16 9.42777 16.1668 9.13084 16.4638C8.83391 16.7607 8.66709 17.1634 8.66709 17.5834V28.6667H3.91709V15.335L15.0004 4.01419L26.0838 15.3984V28.6667Z" fill="white"/>
</svg>
